Patient4_TMGait_0pt7_02_right_25_EMG.mot
version=1
nRows=40
nColumns=33
inDegrees=no
endheader
time	1LAddLong	2LGlutMax	3LGlutMed	4LIliopsoas	5LSemiMemb	6LBicFemLong	7LRecFem	8LVastMed	9LVastLat	10LGasMed	11LTibAnt	12lTibPost	13LPeroneusLong	14LSol	15LExtDigLong	16LFlexDigLong	17RAddLong	18RGlutMax	19RGlutMed	20RIliopsoas	21RSemiMemb	22RBicFemLong	23RRecFem	24RVastMed	25RVastLat	26RGasMed	27RTibAnt	28RTibPost	29RPeroneusLong	30RSol	31RExtDigLong	32RFlexDigLong
29.088	0.025024	0.079803	0.021515	0.01236	0.002899	0.11169	0.099335	0.007019	0.093994	0.036926	0.031891	0.030365	-0.21301	0.13779	0.055237	0.018311	0.045319	-0.12665	-0.21378	0.090027	-0.006714	-0.030823	0.081329	-0.080109	0.006714	-0.019989	0.121	-0.002441	0.04837	-0.01709	0	0.054779
29.089	0.008392	0.037689	-0.044861	0.015411	-0.009918	0.12283	0.13336	0.004578	0.058136	0.018158	0.018616	0.03006	-0.23254	0.21805	0.088348	0.011139	-0.001678	-0.11688	-0.10727	0.1738	-0.068054	-0.069122	0.090332	-0.11643	0.000916	-0.018921	0.098267	-0.003662	0.13763	-0.04776	-0.00061	0.063782
29.09	0.001068	0.067139	-0.14893	0.024414	-0.001984	0.13031	0.15564	-0.006104	0.042114	-0.017242	0.006866	0.03891	-0.35889	0.18249	0.064545	-0.1059	0.078888	-0.075226	-0.36209	0.045776	-0.17761	-0.092926	0.088196	-0.11871	-0.006104	-0.008545	0.088348	-0.003662	0.05127	-0.048828	-0.005188	0.068817
29.091	-0.015259	0.072937	-0.013733	0.00824	-0.022583	0.087585	0.15976	0.004272	0.031433	-0.011902	0.000153	0.047302	-0.31036	0.12161	0.002136	0.25681	0.050354	-0.093384	-0.90439	-0.13702	-0.20691	-0.06073	0.08728	-0.103	0.001984	-0.021667	0.086823	-0.002136	0.16312	-0.028076	-0.004272	0.064392
29.092	-0.019379	0.076904	-0.016632	-0.006714	-0.059509	-0.003662	0.1564	0.020447	0.021057	-0.033112	-0.011139	0.054016	-0.14511	0.07782	-0.035706	0.21851	0.040436	-0.079956	-0.91782	-0.11383	-0.354	0.051117	0.075989	-0.12802	0.00061	-0.009308	0.10544	-0.002136	0.39139	-0.048981	-0.001831	0.064697
29.093	-0.007782	0.075836	0.10773	-0.012817	-0.093842	0.014343	0.13596	0.002747	0.032501	-0.01236	0.015411	0.040283	0.20172	0.12619	0.006409	-0.12482	-0.018005	-0.083618	-0.49881	0.058899	-0.21729	0.11475	0.097961	-0.10391	-0.007477	-0.001221	0.10468	-0.00473	-0.17532	-0.088806	-0.003357	0.066376
29.094	-0.010376	0.073242	-0.040283	-0.000305	-0.088501	-0.033264	0.14938	0.002747	0.04303	-0.008698	0.028839	0.050049	0.8284	0.24674	0.049896	-0.10971	-0.16068	-0.072937	0.34378	0.25131	0.27313	0.1413	0.035095	0.038605	0.032349	-0.00351	0.11017	-0.004425	-0.71838	-0.13138	-0.004425	0.065765
29.095	-0.023346	0.050049	-0.060577	-0.0177	-0.00473	-0.1004	0.13123	0.00412	0.028534	0.001526	0.036163	0.054016	-0.14969	0.19943	-0.005188	-0.025024	-0.21576	-0.11108	0.45105	0.2945	0.43243	0.16937	0.036011	0.036469	0.038452	-0.009003	0.050354	-0.00351	-0.27695	-0.078583	-0.006561	0.059662
29.096	-0.000763	0.046387	-0.037689	0.007019	0.010223	-0.078583	0.11597	0.004272	0.021973	-0.02594	0.04837	0.053558	-0.17944	0.037079	-0.075989	0.007629	-0.19913	-0.18997	-0.024872	0.06546	0.24902	0.08728	0.035248	0.009308	0.016327	-0.022888	0.065765	-0.002594	-0.099945	-0.003815	-0.00473	0.048828
29.097	-0.007172	0.035248	0.014648	0.004425	-0.050354	0.006866	0.13001	0.00061	0.023041	-0.092163	0.024109	0.063629	0.29007	0.036774	-0.11337	0.007935	-0.15442	-0.22492	-0.30579	-0.10056	0.05661	0.061493	0.032806	-0.009918	-0.012512	-0.021362	0.10437	-0.001831	-0.27741	-0.003204	0	0.04776
29.098	0.020142	0.036774	0.10132	-0.00351	-0.064087	0.048828	0.13565	-0.010223	0.028381	-0.21881	-0.009613	0.071716	0.1532	0.19852	-0.078583	0.015869	-0.068512	-0.14999	-0.21423	-0.044708	0.005188	0.061798	0.051727	-0.004578	-0.000916	-0.021057	0.10086	-0.006256	-0.31021	-0.026398	-0.005951	0.045013
29.099	0.022125	0.015106	0.079041	-0.00473	0.10834	-0.004425	0.15701	-0.001221	0.01358	-0.23148	-0.032654	0.090179	0.24124	0.14984	-0.11017	0.019531	-0.005951	-0.14572	-0.12405	-0.042725	0.009918	0.074463	0.052948	0.004883	-0.006104	-0.016937	0.11765	-0.003052	-0.086975	-0.065765	-0.009003	0.037384
29.1	0.03067	0.027924	0.019684	0.007477	0.14252	-0.063782	0.15503	-0.003052	0.009308	-0.19714	-0.030212	0.11368	-0.15442	0.16647	-0.003357	0.007782	0.062103	-0.13306	-0.16937	-0.059357	0.011597	0.045471	0.03952	0.017853	0.00824	-0.014648	0.080872	-0.008392	-0.018005	-0.084229	-0.009155	0.034027
29.101	0.007019	0.007172	-0.01709	0.011597	0.1593	-0.09201	0.2121	-0.002441	-0.024872	-0.12238	0.016327	0.11429	-0.58395	0.26215	0.032349	0.02655	0.096741	-0.13702	-0.13412	-0.023804	0.016937	0.029144	0.002594	0.022278	0.011444	-0.012512	0.076599	-0.009003	0.009918	-0.031586	-0.00824	0.034332
29.102	-0.005646	0.009308	-0.001831	0.021057	0.12039	0.004578	0.26108	0.008392	-0.046082	-0.11581	0.053864	0.037537	-0.45334	0.34119	0.038757	0.030212	0.096741	-0.1651	-0.15305	-0.028839	0.091858	0.029297	0.034943	-0.000458	0.00412	-0.009766	0.081635	-0.009003	0.37552	0.008698	-0.003662	0.029449
29.103	0.000763	0.025024	-0.012665	0.005646	0.057373	0.10162	0.25116	0.00885	-0.02243	-0.19012	0.051575	0.078278	-0.32776	0.42358	0.10651	0.014801	0.11459	-0.14358	-0.091095	-0.022278	0.10254	0.003357	0.067139	0.005798	0.002747	-0.007019	0.039368	-0.005798	0.29465	-0.016327	-0.006714	0.030365
29.104	-0.020599	0.029755	-0.11154	-0.001984	-0.001678	0.057068	0.23102	-0.000305	0.005341	-0.20798	-0.007629	0.10941	0.23254	0.17364	0.060577	0.006104	0.1265	-0.13519	-0.1799	0.050049	0.066986	-0.027924	0.054016	0.018616	0.019836	-0.001221	0.04837	-0.005035	0.037537	-0.005951	-0.010681	0.031433
29.105	-0.006256	0.025177	-0.21011	-0.010071	-0.07843	-0.094147	0.23239	0.005188	0.00351	-0.20157	-0.019989	0.10346	0.029602	-0.081329	0.0914	0.014954	0.11673	-0.12787	-0.24796	0.1059	0.039215	-0.028229	0.065155	-0.016022	0.008698	-0.000916	-0.005493	-0.008545	0.077362	0.016479	-0.008698	0.03479
29.106	-0.020294	0.076752	-0.16998	-0.020142	-0.059662	-0.12161	0.16586	0.012665	0.01358	-0.084229	-0.037384	0.12039	-0.091553	-0.39917	0.018311	0.027924	0.059052	-0.10178	-0.23163	0.11612	-0.019531	-0.084076	0.043335	-0.05661	0.00824	0.007172	-0.03891	-0.003815	0.13962	-0.062561	-0.009155	0.027161
29.107	-0.017395	0.057831	-0.079346	0.033722	-0.056152	-0.071716	0.11368	0.014496	0.035095	0.044861	-0.077667	0.1268	0.18188	-0.62988	-0.072784	0.000153	0.018158	-0.093689	-0.1947	0.083313	-0.086365	-0.041962	0.065613	-0.052643	0.011444	0.01297	-0.005188	-0.000763	0.10742	-0.070953	-0.014496	0.027161
29.108	-0.007019	0.087585	-0.16586	0.041046	0.036774	-0.04364	0.14771	-0.003815	0.072327	-0.022888	-0.077209	0.12039	0.20645	-0.49286	-0.021362	-0.030365	-0.026703	-0.12314	-0.20218	0.025024	-0.023956	-0.044556	0.15213	-0.059814	-0.005188	0.019073	0.023956	-0.007782	0.065765	-0.019379	-0.011902	0.02594
29.109	-0.020447	0.090485	0.039063	0.007477	0.029907	-0.001678	0.20035	-0.00885	0.035706	-0.12497	-0.026703	0.13611	0.16693	-0.36377	-0.03067	-0.035553	-0.031891	-0.096436	-0.20309	0.033112	0.072174	-0.031128	0.11749	-0.091095	-0.005951	0.019989	0.036316	-0.005035	0.026398	-0.01236	-0.012817	0.019531
29.11	-0.023041	0.091553	0.21027	-0.002136	-0.058899	0.12589	0.2565	0.00824	-0.073242	-0.018005	-0.014496	0.16098	0.17456	-0.079498	-0.011139	-0.025635	-0.043335	-0.057526	-0.10361	0.01709	0.065918	-0.06958	0.10437	-0.079346	0.001678	0.024261	0.052948	-0.004883	0.005188	-0.033722	-0.009308	0.021057
29.111	-0.029907	0.10208	-0.021057	0.025024	-0.091248	0.10544	0.24735	0.009003	-0.1622	-0.014954	-0.016785	0.16495	0.1738	0.1828	0.004578	0.020447	-0.035706	-0.11261	-0.040436	-0.07843	0.06424	-0.096436	0.088196	-0.04364	-0.010071	0.020447	0.15701	-0.007172	0.064545	-0.04303	-0.007324	0.0177
29.112	-0.018158	0.12497	-0.20783	0.022736	-0.003357	0.055695	0.19882	-0.003815	-0.093384	0.037537	-0.010223	0.16892	0.090485	0.14816	0.030823	0.031891	-0.024567	-0.095978	-0.00412	-0.086365	0.037842	-0.09964	0.06134	0.005493	-0.001678	0.025482	0.070496	-0.005188	0.084229	-0.064545	-0.014954	0.007935
29.113	0.000305	0.14633	-0.098877	-0.013733	0.076294	-0.025635	0.17319	-0.011902	-0.013123	0.015564	-0.003052	0.15305	0.02655	0.074463	0.011444	0.000305	-0.019531	-0.078583	0.18234	-0.010681	-0.10849	-0.043793	0.070648	0.00412	0.010223	0.026245	-0.11078	-0.005798	0.041199	-0.090027	-0.009613	0.0177
29.114	0.025177	0.14969	-0.062714	-0.002899	0.15015	-0.025482	0.091553	-0.00824	0.026398	-0.062561	0.004425	0.18112	0.025177	0.11826	-0.045624	-0.001373	-0.004883	-0.1181	-0.052185	-0.016174	-0.18478	0.029907	0.035706	0.016632	-0.003357	0.025177	-0.1857	-0.00412	0.057678	-0.1001	-0.00885	0.01297
29.115	0.025177	0.097809	0.14313	-0.009003	0.14511	0.072327	0.064087	0.002899	0.14084	-0.058289	0.006866	0.25894	-0.061951	0.30426	-0.076141	-0.058899	0.005341	-0.13031	-0.41336	-0.032501	-0.16739	0.016022	-0.034332	-0.044098	0.010223	0.022583	-0.19623	-0.005798	-0.006561	-0.12573	-0.011292	0.00824
29.116	0.013428	0.10483	0.13794	-0.001526	0.062866	0.16129	0.16647	-0.0177	0.13992	0.073242	-0.018768	0.30182	-0.17899	0.16785	-0.076141	-0.036163	-0.012207	-0.071106	-0.93216	-0.010834	-0.024261	0.005188	-0.027618	-0.041046	0.005646	0.014038	-0.10513	-0.004578	-0.048828	-0.12054	-0.017548	0.009308
29.117	0.010071	0.10071	0.16388	-0.007935	0.032959	0.15213	0.20737	-0.013428	-0.00824	0.13702	0.003357	-0.008698	-0.20432	-0.001221	-0.040588	0.095062	-0.020142	-0.008392	-0.52338	0.024719	0.10452	-0.031281	0.036774	-0.041199	0.019226	0.007629	0.006561	-0.00824	-0.054016	-0.079651	-0.018005	0.009613
29.118	0	0.088959	0.15106	-0.014648	0.013428	0.13534	0.16815	-0.009155	0.041809	0.009766	0.042877	0.15823	-0.028687	-0.005798	0.011597	0.15045	-0.018158	0.017395	0.63873	-0.021057	0.15396	-0.068359	-0.001221	-0.028534	0.012665	0.004425	0.16953	-0.00885	-0.077667	-0.016022	-0.024414	0.002747
29.119	0.005341	0.093689	0.075989	0.018311	-0.01297	0.12436	0.14252	-0.015717	0.063019	-0.10132	0.036316	0.19608	0.30182	0.025787	0.038757	0.060272	0.019684	-0.013885	1.5129	-0.23453	0.079346	-0.029755	-0.040588	-0.005951	0.012817	0.006104	0.28381	-0.00824	-0.054169	0.006256	-0.020447	0.006561
29.12	0.021667	0.098572	0.000916	0.016022	-0.005493	0.043945	0.13779	-0.006561	0.069275	-0.16403	0.023193	0.21408	0.04303	0.12741	0.046387	0.008392	0.052795	-0.12009	0.62622	-0.23621	0.028229	-0.09613	-0.057526	-0.056152	0.005341	-0.005188	0.37888	-0.006409	0.079956	0.004883	-0.020447	-0.007477
29.121	0.02243	0.052338	-0.029297	0.028992	0.005951	0.023804	0.14633	0.005646	0.031281	-0.20569	0.059509	0.20767	-0.1239	0.12344	0.0354	-0.068054	0.070648	-0.20065	0.1355	-0.23697	-0.004883	-0.12756	-0.020294	-0.071564	0.013275	-0.002899	0.27893	-0.007477	0.11414	0.052643	-0.019531	-0.000305
29.122	0.0177	0.07019	-0.10727	0.019836	-0.007629	0.04715	0.19775	0.000305	0.026398	-0.1857	0.039368	0.15305	-0.063171	0.1474	0.049896	-0.063782	0.058289	-0.2417	-0.43732	-0.1416	-0.033569	-0.14694	-0.032806	-0.08728	0.012665	-0.001984	0.070801	-0.008392	-0.41565	0.027924	-0.020142	-0.000458
29.123	-0.003052	0.076447	-0.10712	0.026855	-0.048218	0.081482	0.29358	-0.001526	0.070038	-0.13382	0.009918	0.10269	-0.034332	0.31525	0.065002	0.078278	0.039215	-0.13702	-0.58762	0.24506	-0.057678	-0.20386	-0.054626	-0.008545	0.011139	-0.006409	-0.074463	-0.00946	-0.16708	-0.001068	-0.022278	0.007324
29.124	-0.004272	0.078735	-0.051117	0.007172	-0.061646	0.082703	0.31464	-0.004883	0.074463	-0.06424	0.006256	0.071869	0.047302	0.074158	0.037842	-0.09491	0.023041	-0.048676	-0.59815	0.41367	0.028687	-0.10284	0.027924	-0.010834	0.015717	-0.006714	0.032043	-0.010223	0.61615	0.023499	-0.018921	0.009613
29.125	-0.006409	0.075226	-0.064392	0.012207	0.00824	0.01709	0.30716	-0.002289	0.052338	0.037994	0.014038	0.019073	0.027008	-0.28458	0.005341	0.10498	0.014496	-0.055695	0.65842	0.27466	-0.074921	0.072174	0.090179	-0.003815	0.009155	-0.006104	0.26352	-0.008392	1.0489	0.070953	-0.016327	0.003815
29.126	0.000305	0.086975	-0.10727	0.030975	0.038757	-0.019989	0.29602	-0.00061	0.03891	0.1268	-0.028839	-0.030212	0.12894	-0.24841	-0.015869	0.28168	0.002747	-0.10437	0.50461	0.074158	-0.11566	0.088654	0.10635	-0.020599	0.017548	0.002594	0.001984	-0.009613	0.47257	-0.014343	-0.020447	0.005798
29.127	-0.001526	0.11002	0.036621	0.000153	0.021667	-0.056763	0.31616	-0.002441	0.018616	0.18677	-0.071716	-0.037079	0.29572	-0.016937	-0.031433	-0.010376	-0.00061	-0.17044	0.79224	0.1445	-0.079803	0.077209	0.13794	-0.005951	0.022888	0.008698	-0.17944	-0.009766	-0.99335	-0.1506	-0.020142	0.006714
